<svg width="102" height="102" viewBox="0 0 102 102" fill="none" xmlns="http://www.w3.org/2000/svg">
<rect x="1.5" y="1.5" width="99" height="99" fill="white" stroke="black" stroke-width="3"/>
<path d="M41.4375 44.625C44.625 35.5938 51.7969 17.5312 54.9844 17.5312H78.8906C81.0156 24.1719 85.1062 38.8875 84.4688 44.625V66.1406H16.7344L13.5469 54.9844L16.7344 44.625H41.4375Z" fill="#DC7313"/>
<path d="M84.4688 44.625C85.1063 38.8875 81.0156 24.1719 78.8906 17.5312C72.25 17.5312 58.1719 17.5312 54.9844 17.5312C51.7969 17.5312 44.625 35.5938 41.4375 44.625H84.4688ZM84.4688 44.625H16.7344L13.5469 54.9844M84.4688 44.625V66.1406H16.7344L13.5469 54.9844M13.5469 54.9844H9.5625V37.4531" stroke="#DC7313" stroke-width="2"/>
<circle cx="25.5" cy="66.9375" r="12.3438" fill="white" stroke="black" stroke-width="4"/>
<path d="M54.1875 22.3125H78.0938L81.2812 39.8438H47.0156L54.1875 22.3125Z" fill="#D9D9D9"/>
<circle cx="72.5156" cy="61.3594" r="17.9219" fill="white" stroke="black" stroke-width="4"/>
<circle cx="72.5156" cy="61.3594" r="8.76562" fill="black"/>
</svg>
